<svg width="13" height="13" viewBox="0 0 13 13" fill="none" xmlns="http://www.w3.org/2000/svg">
<path d="M3.5978 8.56013C3.36913 8.76927 3.12246 8.97454 2.87626 9.17461C2.41038 9.57137 1.91133 9.92917 1.39852 10.2651C1.30478 10.3449 1.21103 10.4247 1.15141 10.5331C0.85646 10.8083 0.68776 11.5425 0.998075 11.6479C1.84752 11.9087 2.77077 12.0203 3.64859 12.1993C4.55103 12.3669 5.45584 12.5374 6.35119 12.7255C6.61978 12.7704 6.78444 12.4285 6.85443 12.2345C6.90362 12.0966 7.01797 11.5863 6.76974 11.5481C5.8673 11.3804 4.96249 11.21 4.06714 11.0218C3.92266 10.9961 3.77817 10.9703 3.63369 10.9445C5.27588 10.8758 6.88659 10.4019 8.34363 9.56915C10.4357 8.35403 12.1337 6.39426 12.7514 4.02932C13.0596 2.76827 13.0214 1.39408 12.5173 0.215082C12.412 -0.0409206 12.152 0.137251 12.0304 0.293662C11.8699 0.502332 11.7294 0.895617 11.8347 1.15162C12.207 2.02041 12.2995 2.99793 12.1129 3.90101C12.0264 4.33471 11.8746 4.76646 11.6546 5.19869C11.4232 5.66939 11.1198 6.09581 10.7828 6.48847C9.51983 7.95773 7.73274 8.98995 5.86435 9.44329C5.10041 9.62817 4.31417 9.74084 3.52503 9.74075C3.81289 9.486 4.11874 9.23512 4.36585 8.96706C4.65462 8.64433 4.99145 7.87736 4.54226 7.59737C4.47023 7.55308 4.3244 7.65807 4.26522 7.70367C4.16438 7.80395 4.08347 7.97368 4.03429 8.11159L3.9851 8.2495C3.94817 8.28095 3.92591 8.2951 3.91173 8.33599C3.78433 8.38207 3.69343 8.45948 3.59259 8.55976L3.5978 8.56013Z" fill="#001AFF"/>
</svg>
