<svg width="639" height="706" viewBox="0 0 639 706" fill="none" xmlns="http://www.w3.org/2000/svg">
<path d="M478.357 401V401C488.71 480.367 551.174 542.832 630.542 553.184V553.184V553.184C551.174 563.536 488.71 626.001 478.357 705.368V705.368V705.368C468.005 626.001 405.54 563.536 326.173 553.184V553.184V553.184C405.54 542.832 468.005 480.367 478.357 401V401Z" fill="#001AFF"/>
<path d="M478.357 0V0C489.254 83.5393 555.002 149.288 638.542 160.184V160.184V160.184C555.002 171.081 489.254 236.829 478.357 320.368V320.368V320.368C467.461 236.829 401.713 171.081 318.173 160.184V160.184V160.184C401.713 149.288 467.461 83.5393 478.357 0V0Z" fill="#001AFF"/>
<path d="M196.633 159.552V159.552C210.009 262.1 290.717 342.808 393.265 356.184V356.184V356.184C290.717 369.56 210.009 450.269 196.633 552.816V552.816V552.816C183.257 450.269 102.548 369.56 0.000502864 356.184V356.184V356.184C102.548 342.808 183.257 262.1 196.633 159.552V159.552Z" fill="#001AFF"/>
</svg>
