<svg width="64" height="64" viewBox="0 0 64 64" fill="none" xmlns="http://www.w3.org/2000/svg">
<path d="M31.1004 30.57C42.3704 30.57 51.5104 33.25 51.5104 36.55C51.5104 39.85 42.3704 42.53 31.1004 42.53C19.8304 42.53 10.6904 39.85 10.6904 36.55C10.6904 33.25 19.8304 30.57 31.1004 30.57Z" stroke="#12182F" stroke-width="1.5" stroke-linecap="round" stroke-linejoin="round"/>
<path d="M36.0296 26.82C33.1996 24.67 28.7796 24.26 25.8596 26.41C22.9096 28.58 20.8896 34.85 24.7296 37.21C25.6996 37.81 26.8896 37.93 28.0196 38C29.8396 38.11 31.6696 38.11 33.4896 38C34.7296 37.93 36.0296 37.79 37.0496 37.07C38.1696 36.28 38.7496 34.91 38.9096 33.56C39.1996 31.02 38.0596 28.37 36.0296 26.83V26.82Z" fill="#0019FF"/>
<path d="M15.6396 35.89C25.3096 38.68 36.5996 38.7 46.2796 35.93" stroke="#12182F" stroke-width="1.5" stroke-linecap="round" stroke-linejoin="round"/>
<path d="M44.2803 41.36C44.0803 45.62 44.7503 52.23 45.1703 55.73C45.3303 57.1 44.4103 58.36 43.0503 58.63C35.5003 60.16 27.1303 60.15 19.5903 58.61C18.2303 58.33 17.3003 57.06 17.4803 55.68C17.8903 52.53 18.4303 46.76 17.8303 41.51" stroke="#12182F" stroke-width="1.5" stroke-linecap="round" stroke-linejoin="round"/>
<path d="M23.6296 14.27C23.6696 13.14 23.8096 11.97 24.3896 10.99C24.9696 10.01 26.0496 9.26997 27.1796 9.39997C28.7696 9.58997 29.6696 11.31 30.1296 12.85C31.3096 16.77 31.4796 20.98 30.6296 24.98C30.4596 25.77 30.2196 26.61 29.5996 27.13C25.7596 30.34 23.5596 16.19 23.6296 14.27Z" fill="#0019FF"/>
<path d="M33.2803 16C33.6903 15.06 34.2003 14.13 35.0103 13.49C35.8203 12.85 36.9903 12.59 37.8903 13.08C39.1703 13.77 39.3503 15.52 39.2203 16.97C38.9003 20.66 37.6403 24.27 35.5903 27.35C35.1803 27.96 34.7003 28.58 34.0103 28.81C29.7103 30.23 32.5803 17.58 33.2803 15.98V16Z" fill="#0019FF"/>
<path d="M30.9597 34.13C31.3684 34.13 31.6997 33.9912 31.6997 33.82C31.6997 33.6488 31.3684 33.51 30.9597 33.51C30.551 33.51 30.2197 33.6488 30.2197 33.82C30.2197 33.9912 30.551 34.13 30.9597 34.13Z" stroke="white" stroke-width="1.5" stroke-linecap="round" stroke-linejoin="round"/>
<path d="M25.04 31.8C25.78 31.12 26.94 30.94 27.85 31.37" stroke="white" stroke-width="1.5" stroke-linecap="round" stroke-linejoin="round"/>
<path d="M36.6 31.8C35.86 31.12 34.7 30.94 33.79 31.37" stroke="white" stroke-width="1.5" stroke-linecap="round" stroke-linejoin="round"/>
<path d="M34.9597 4.45999L35.2297 5.99999C35.2597 6.17999 35.3797 6.32999 35.5397 6.40999L36.9597 7.05999C37.3797 7.24999 37.3897 7.82999 36.9897 8.04999L35.6097 8.78999C35.4497 8.87999 35.3397 9.02999 35.3197 9.21999L35.1397 10.77C35.0897 11.22 34.5397 11.42 34.2097 11.11L33.0797 10.02C32.9497 9.88999 32.7597 9.83999 32.5897 9.87999L31.0597 10.19C30.6097 10.28 30.2497 9.81999 30.4497 9.40999L31.1297 7.99999C31.2097 7.83999 31.1997 7.63999 31.1097 7.48999L30.3397 6.12999C30.1097 5.72999 30.4397 5.24999 30.8997 5.30999L32.4497 5.52999C32.6297 5.55999 32.8097 5.48999 32.9297 5.35999L33.9897 4.20999C34.2997 3.86999 34.8597 4.03999 34.9397 4.48999L34.9597 4.45999Z" stroke="#12182F" stroke-width="1.5" stroke-miterlimit="10"/>
<path d="M49.9399 22.04L50.2399 23.7C50.2699 23.89 50.3999 24.06 50.5799 24.14L52.1199 24.84C52.5699 25.04 52.5899 25.68 52.1499 25.91L50.6599 26.7C50.4899 26.79 50.3699 26.96 50.3499 27.16L50.1599 28.84C50.0999 29.33 49.5099 29.54 49.1499 29.2L47.9299 28.03C47.7899 27.89 47.5899 27.84 47.3999 27.88L45.7499 28.22C45.2699 28.32 44.8799 27.82 45.0899 27.38L45.8299 25.86C45.9199 25.68 45.9099 25.48 45.8099 25.31L44.9799 23.84C44.7399 23.41 45.0899 22.89 45.5799 22.96L47.2499 23.19C47.4399 23.22 47.6399 23.15 47.7699 23L48.9099 21.75C49.2399 21.39 49.8499 21.56 49.9399 22.05V22.04Z" stroke="#12182F" stroke-width="1.5" stroke-miterlimit="10"/>
<path d="M13.94 19.16L15.42 20.25C15.59 20.38 15.82 20.41 16.02 20.34L17.76 19.74C18.27 19.56 18.76 20.05 18.59 20.56L18.01 22.31C17.94 22.51 17.98 22.74 18.11 22.91L19.22 24.38C19.55 24.81 19.24 25.43 18.7 25.42H16.86C16.65 25.41 16.44 25.51 16.32 25.69L15.27 27.2C14.96 27.64 14.28 27.54 14.12 27.03L13.56 25.27C13.5 25.07 13.33 24.91 13.13 24.84L11.37 24.3C10.85 24.14 10.74 23.46 11.18 23.15L12.68 22.08C12.85 21.96 12.96 21.75 12.95 21.54L12.91 19.7C12.9 19.16 13.51 18.84 13.95 19.16H13.94Z" stroke="#12182F" stroke-width="1.5" stroke-miterlimit="10"/>
<path d="M19.7197 8.32001L21.8597 10.46" stroke="#12182F" stroke-width="1.5" stroke-linecap="round" stroke-linejoin="round"/>
<path d="M45.1699 14.91L47.4999 13.16" stroke="#12182F" stroke-width="1.5" stroke-linecap="round" stroke-linejoin="round"/>
<path d="M6.71973 32.19L10.0197 31.22" stroke="#12182F" stroke-width="1.5" stroke-linecap="round" stroke-linejoin="round"/>
<path d="M52.9404 33.94L55.4604 34.91" stroke="#12182F" stroke-width="1.5" stroke-linecap="round" stroke-linejoin="round"/>
</svg>
