<svg width="800" height="800" viewBox="0 0 800 800" fill="none" xmlns="http://www.w3.org/2000/svg">
<g clip-path="url(#clip0_118_39)">
<path fill-rule="evenodd" clip-rule="evenodd" d="M400 800C620.913 800 800 620.913 800 400C800 179.086 620.913 0 400 0C179.086 0 0 179.086 0 400C0 620.913 179.086 800 400 800ZM150.686 611.64C102.218 554.6 72.9756 480.716 72.9756 400V399.92C204.112 398.611 311.843 381.229 408.807 348.287C416.975 365.836 424.898 383.76 432.567 402.051C420.2 406.149 408.036 410.724 396.065 415.764C299.701 456.324 218.377 525.862 150.686 611.64ZM203.86 661.698C258.503 702.72 326.413 727.025 400 727.025C444.32 727.025 486.578 718.207 525.124 702.233C507.884 619.52 485.527 542.073 459.145 469.88C447.284 473.687 435.662 478.004 424.28 482.793C340.218 518.178 266.852 580.542 203.86 661.698ZM530.633 453.691C554.469 520.069 575.015 590.542 591.527 665.098C656.291 618.229 703.2 548.207 720.116 467.175C651.429 449.415 588.44 445.833 530.633 453.691ZM503.909 384.225C572.873 372.407 647.258 374.789 726.971 393.935C725.738 326.333 703.996 263.742 667.705 212.124C604.938 256.476 542.822 293.152 476.767 321.963C486.135 342.258 495.189 363.015 503.909 384.225ZM376.207 282.489C290.812 310.338 196.017 325.259 81.1345 327.084C103.9 227.115 172.471 144.569 263.602 102.691C303.615 156.823 341.575 216.751 376.207 282.489ZM444.735 256.59C505.004 230.601 561.695 197.487 619.207 157.318C561.211 104.898 484.335 72.9756 400 72.9756C378.233 72.9756 356.964 75.1022 336.385 79.1593C374.92 133.213 411.378 192.361 444.735 256.59Z" fill="black"/>
</g>
<defs>
<clipPath id="clip0_118_39">
<rect width="800" height="800" fill="white"/>
</clipPath>
</defs>
</svg>
