<svg width="64" height="64" viewBox="0 0 64 64" fill="none" xmlns="http://www.w3.org/2000/svg">
<path d="M44.4596 27.7699C44.4596 29.3899 43.0996 30.7199 42.5196 32.1199C41.9396 33.5199 41.9096 35.4799 40.8096 36.5699C39.7096 37.6599 37.8096 37.6699 36.3596 38.2799C34.9096 38.8899 33.6196 40.2199 32.0096 40.2199C30.3996 40.2199 29.0596 38.8599 27.6596 38.2799C26.2596 37.6999 24.2996 37.6699 23.2096 36.5699C22.1196 35.4699 22.1096 33.5699 21.4996 32.1199C20.8896 30.6699 19.5596 29.3799 19.5596 27.7699C19.5596 26.1599 20.9196 24.8199 21.4996 23.4199C22.0796 22.0199 22.1096 20.0599 23.2096 18.9699C24.3096 17.8799 26.2096 17.8699 27.6596 17.2599C29.1096 16.6499 30.3996 15.3199 32.0096 15.3199C33.6196 15.3199 34.9596 16.6799 36.3596 17.2599C37.7596 17.8399 39.7196 17.8699 40.8096 18.9699C41.8996 20.0699 41.9096 21.9699 42.5196 23.4199C43.1296 24.8699 44.4596 26.1599 44.4596 27.7699Z" fill="#0019FF"/>
<path d="M49.4196 27.77C49.4196 30.03 47.5196 31.9 46.6996 33.86C45.8796 35.82 45.8496 38.55 44.3096 40.09C42.7696 41.63 40.1196 41.63 38.0796 42.48C36.0396 43.33 34.2496 45.2 31.9896 45.2C29.7296 45.2 27.8596 43.3 25.8996 42.48C23.9396 41.66 21.2096 41.63 19.6696 40.09C18.1296 38.55 18.1296 35.9 17.2796 33.86C16.4296 31.82 14.5596 30.03 14.5596 27.77C14.5596 25.51 16.4596 23.64 17.2796 21.68C18.0996 19.72 18.1296 16.99 19.6696 15.45C21.2096 13.91 23.8596 13.91 25.8996 13.06C27.9396 12.21 29.7296 10.34 31.9896 10.34C34.2496 10.34 36.1196 12.24 38.0796 13.06C40.0396 13.88 42.7696 13.91 44.3096 15.45C45.8496 16.99 45.8496 19.64 46.6996 21.68C47.5496 23.72 49.4196 25.51 49.4196 27.77Z" stroke="#12182F" stroke-width="1.5" stroke-miterlimit="10"/>
<path d="M32.4903 23.24L33.6303 25.54C33.7103 25.7 33.8603 25.81 34.0403 25.84L36.5803 26.21C37.0303 26.28 37.2103 26.83 36.8803 27.14L35.0403 28.93C34.9103 29.06 34.8503 29.24 34.8803 29.41L35.3103 31.94C35.3903 32.39 34.9203 32.73 34.5203 32.52L32.2503 31.32C32.0903 31.24 31.9003 31.24 31.7403 31.32L29.4703 32.52C29.0703 32.73 28.6003 32.39 28.6803 31.94L29.1103 29.41C29.1403 29.23 29.0803 29.05 28.9503 28.93L27.1103 27.14C26.7903 26.82 26.9603 26.27 27.4103 26.21L29.9503 25.84C30.1303 25.81 30.2803 25.7 30.3603 25.54L31.5003 23.24C31.7003 22.83 32.2803 22.83 32.4803 23.24H32.4903Z" stroke="white" stroke-width="1.5" stroke-miterlimit="10"/>
<path d="M25.3701 41.9V53.26C25.3701 53.85 25.8701 54.26 26.3301 54.04L31.9001 51.48C32.0601 51.4 32.2501 51.4 32.4101 51.48L37.9801 54.04C38.4401 54.25 38.9401 53.85 38.9401 53.26V42.06" stroke="#12182F" stroke-width="1.5" stroke-miterlimit="10"/>
</svg>
