<svg width="22" height="16" viewBox="0 0 22 16" fill="none" xmlns="http://www.w3.org/2000/svg">
<g clip-path="url(#clip0_27_255)">
<g clip-path="url(#clip1_27_255)">
<rect width="22" height="16" rx="2" fill="white"/>
<path fill-rule="evenodd" clip-rule="evenodd" d="M0 0H9.42857V7.46667H0V0Z" fill="#1A47B8"/>
<path fill-rule="evenodd" clip-rule="evenodd" d="M9.42857 0V1.06667H22V0H9.42857ZM9.42857 2.13333V3.2H22V2.13333H9.42857ZM9.42857 4.26667V5.33333H22V4.26667H9.42857ZM9.42857 6.4V7.46667H22V6.4H9.42857ZM0 8.53333V9.6H22V8.53333H0ZM0 10.6667V11.7333H22V10.6667H0ZM0 12.8V13.8667H22V12.8H0ZM0 14.9333V16H22V14.9333H0Z" fill="#F93939"/>
<path fill-rule="evenodd" clip-rule="evenodd" d="M1.04761 1.06667V2.13333H2.09523V1.06667H1.04761ZM3.14285 1.06667V2.13333H4.19046V1.06667H3.14285ZM5.23808 1.06667V2.13333H6.2857V1.06667H5.23808ZM7.33332 1.06667V2.13333H8.38094V1.06667H7.33332ZM6.2857 2.13333V3.2H7.33332V2.13333H6.2857ZM4.19046 2.13333V3.2H5.23808V2.13333H4.19046ZM2.09523 2.13333V3.2H3.14285V2.13333H2.09523ZM1.04761 3.2V4.26667H2.09523V3.2H1.04761ZM3.14285 3.2V4.26667H4.19046V3.2H3.14285ZM5.23808 3.2V4.26667H6.2857V3.2H5.23808ZM7.33332 3.2V4.26667H8.38094V3.2H7.33332ZM1.04761 5.33333V6.4H2.09523V5.33333H1.04761ZM3.14285 5.33333V6.4H4.19046V5.33333H3.14285ZM5.23808 5.33333V6.4H6.2857V5.33333H5.23808ZM7.33332 5.33333V6.4H8.38094V5.33333H7.33332ZM6.2857 4.26667V5.33333H7.33332V4.26667H6.2857ZM4.19046 4.26667V5.33333H5.23808V4.26667H4.19046ZM2.09523 4.26667V5.33333H3.14285V4.26667H2.09523Z" fill="white"/>
</g>
</g>
<defs>
<clipPath id="clip0_27_255">
<rect width="22" height="16" fill="white"/>
</clipPath>
<clipPath id="clip1_27_255">
<rect width="22" height="16" rx="2" fill="white"/>
</clipPath>
</defs>
</svg>
