<svg width="564" height="564" viewBox="0 0 564 564" fill="none" xmlns="http://www.w3.org/2000/svg">
<g clip-path="url(#clip0_117_29)">
<mask id="mask0_117_29" style="mask-type:luminance" maskUnits="userSpaceOnUse" x="0" y="0" width="564" height="564">
<path d="M564 0H0V564H564V0Z" fill="white"/>
</mask>
<g mask="url(#mask0_117_29)">
<path d="M282 50.782C357.347 50.782 366.27 51.1125 395.902 52.4344C423.441 53.646 438.311 58.2727 448.226 62.1281C461.334 67.1953 470.808 73.3641 480.611 83.1679C490.526 93.0821 496.584 102.445 501.652 115.554C505.507 125.468 510.133 140.449 511.346 167.878C512.668 197.62 512.998 206.543 512.998 281.78C512.998 357.127 512.668 366.049 511.346 395.681C510.133 423.221 505.507 438.092 501.652 448.005C496.584 461.115 490.416 470.587 480.611 480.392C470.698 490.305 461.334 496.365 448.226 501.431C438.311 505.286 423.33 509.914 395.902 511.125C366.159 512.447 357.236 512.777 282 512.777C206.653 512.777 197.73 512.447 168.099 511.125C140.559 509.914 125.689 505.286 115.774 501.431C102.666 496.365 93.1922 490.196 83.3883 480.392C73.4743 470.477 67.4156 461.115 62.3484 448.005C58.493 438.092 53.8665 423.11 52.6547 395.681C51.3328 365.94 51.0024 357.017 51.0024 281.78C51.0024 206.433 51.3328 197.51 52.6547 167.878C53.8665 140.338 58.493 125.468 62.3484 115.554C67.4156 102.445 73.5844 92.9719 83.3883 83.1679C93.3024 73.254 102.666 67.1953 115.774 62.1281C125.689 58.2727 140.67 53.646 168.099 52.4344C197.73 51.1125 206.653 50.782 282 50.782ZM282 0C205.442 0 195.858 0.330469 165.785 1.65234C135.823 2.97422 115.223 7.82109 97.3781 14.7609C78.7617 22.0312 63.0094 31.6148 47.3672 47.3672C31.6149 63.0094 22.0313 78.7618 14.7609 97.268C7.82109 115.223 2.97422 135.712 1.65234 165.675C0.330469 195.857 0 205.442 0 282C0 358.558 0.330469 368.142 1.65234 398.214C2.97422 428.177 7.82109 448.777 14.7609 466.622C22.0313 485.239 31.6149 500.991 47.3672 516.633C63.0094 532.275 78.7618 541.969 97.268 549.129C115.223 556.069 135.713 560.916 165.675 562.237C195.748 563.559 205.331 563.89 281.89 563.89C358.449 563.89 368.032 563.559 398.105 562.237C428.068 560.916 448.667 556.069 466.511 549.129C485.018 541.969 500.771 532.275 516.413 516.633C532.054 500.991 541.749 485.239 548.908 466.732C555.849 448.777 560.696 428.287 562.018 398.325C563.34 368.252 563.67 358.669 563.67 282.11C563.67 205.552 563.34 195.968 562.018 165.896C560.696 135.933 555.849 115.334 548.908 97.4883C541.969 78.7617 532.385 63.0094 516.633 47.3672C500.991 31.725 485.239 22.0312 466.732 14.871C448.777 7.93125 428.288 3.08437 398.325 1.7625C368.143 0.330469 358.558 0 282 0Z" fill="black"/>
<path d="M282 137.145C202.027 137.145 137.145 202.027 137.145 282C137.145 361.973 202.027 426.855 282 426.855C361.973 426.855 426.855 361.973 426.855 282C426.855 202.027 361.973 137.145 282 137.145ZM282 375.963C230.116 375.963 188.036 333.883 188.036 282C188.036 230.116 230.116 188.036 282 188.036C333.883 188.036 375.963 230.116 375.963 282C375.963 333.883 333.883 375.963 282 375.963Z" fill="black"/>
<path d="M466.401 131.415C466.401 150.141 451.2 165.233 432.583 165.233C413.857 165.233 398.766 150.032 398.766 131.415C398.766 112.689 413.968 97.5972 432.583 97.5972C451.2 97.5972 466.401 112.799 466.401 131.415Z" fill="black"/>
</g>
</g>
<defs>
<clipPath id="clip0_117_29">
<rect width="564" height="564" fill="white"/>
</clipPath>
</defs>
</svg>
