<svg width="76" height="75" viewBox="0 0 76 75" fill="none" xmlns="http://www.w3.org/2000/svg">
<g filter="url(#filter0_b_245_74)">
<mask id="path-1-outside-1_245_74" maskUnits="userSpaceOnUse" x="0.441071" y="0.15625" width="75" height="75" fill="black">
<rect fill="white" x="0.441071" y="0.15625" width="75" height="75"/>
<path d="M53.6703 1.15625H22.0924C9.7453 1.15625 1.44107 9.8247 1.44107 22.7181V52.4749C1.44107 65.3319 9.7453 74.0004 22.0924 74.0004H53.6703C66.0174 74.0004 74.2852 65.3319 74.2852 52.4749V22.7181C74.2852 9.8247 66.0174 1.15625 53.6703 1.15625Z"/>
</mask>
<path d="M53.6703 1.15625H22.0924C9.7453 1.15625 1.44107 9.8247 1.44107 22.7181V52.4749C1.44107 65.3319 9.7453 74.0004 22.0924 74.0004H53.6703C66.0174 74.0004 74.2852 65.3319 74.2852 52.4749V22.7181C74.2852 9.8247 66.0174 1.15625 53.6703 1.15625Z" fill="black"/>
<path d="M53.6703 2.15625C54.2226 2.15625 54.6703 1.70853 54.6703 1.15625C54.6703 0.603965 54.2226 0.15625 53.6703 0.15625V2.15625ZM53.6703 0.15625C53.118 0.15625 52.6703 0.603965 52.6703 1.15625C52.6703 1.70853 53.118 2.15625 53.6703 2.15625V0.15625ZM53.6703 0.15625H22.0924V2.15625H53.6703V0.15625ZM22.0924 0.15625C15.6761 0.15625 10.2422 2.41412 6.4144 6.41044C2.59019 10.403 0.441071 16.0546 0.441071 22.7181H2.44107C2.44107 16.4882 4.44407 11.3589 7.85874 7.79387C11.2698 4.23261 16.1616 2.15625 22.0924 2.15625V0.15625ZM0.441071 22.7181V52.4749H2.44107V22.7181H0.441071ZM0.441071 52.4749C0.441071 59.1209 2.59064 64.7635 6.41482 68.7512C10.2425 72.7426 15.6761 75.0004 22.0924 75.0004V73.0004C16.1616 73.0004 11.2695 70.924 7.85832 67.3669C4.44362 63.8061 2.44107 58.686 2.44107 52.4749H0.441071ZM22.0924 75.0004H53.6703V73.0004H22.0924V75.0004ZM53.6703 75.0004C60.0868 75.0004 65.5118 72.7424 69.3305 68.7503C73.1455 64.7621 75.2852 59.1197 75.2852 52.4749H73.2852C73.2852 58.6872 71.291 63.8075 67.8853 67.3678C64.4834 70.9241 59.6009 73.0004 53.6703 73.0004V75.0004ZM75.2852 52.4749V22.7181H73.2852V52.4749H75.2852ZM75.2852 22.7181C75.2852 16.0559 73.146 10.4044 69.331 6.41135C65.5121 2.41429 60.0868 0.15625 53.6703 0.15625V2.15625C59.6009 2.15625 64.4831 4.23244 67.8849 7.79296C71.2905 11.3575 73.2852 16.487 73.2852 22.7181H75.2852Z" fill="url(#paint0_linear_245_74)" mask="url(#path-1-outside-1_245_74)"/>
</g>
<path d="M51.3358 13.7522C51.2701 13.6868 51.1813 13.65 51.0886 13.65H22.5676C22.3743 13.65 22.2176 13.8067 22.2176 14V24.1906H12C11.8067 24.1906 11.65 24.3473 11.65 24.5406V50.0281C11.65 50.121 11.687 50.2102 11.7528 50.2758L23.6573 62.1568C23.723 62.2223 23.8119 62.2591 23.9046 62.2591H52.4324C52.6257 62.2591 52.7824 62.1024 52.7824 61.9091V51.7187H63C63.1933 51.7187 63.35 51.562 63.35 51.3687V25.8811C63.35 25.7881 63.313 25.6989 63.2472 25.6333L51.3358 13.7522ZM17.2203 47.8801V29.7438H22.2176V41.7263C22.2176 41.8193 22.2546 41.9085 22.3205 41.9741L31.9921 51.6143C32.0577 51.6796 32.1466 51.7164 32.2392 51.7164H47.21V56.7059H26.0664L17.2203 47.8801ZM57.7797 28.0313L57.7776 46.1654H52.7824V34.1783C52.7824 34.0852 52.7453 33.996 52.6794 33.9303L43.0008 24.2926C42.9352 24.2272 42.8464 24.1906 42.7538 24.1906H27.7924V19.201H48.9267L57.7797 28.0313ZM47.21 46.1654H34.4009L27.7924 39.5737V29.7438H40.5991L47.21 36.3354V46.1654Z" fill="url(#paint1_linear_245_74)"/>
<path d="M51.3358 13.7522C51.2701 13.6868 51.1813 13.65 51.0886 13.65H22.5676C22.3743 13.65 22.2176 13.8067 22.2176 14V24.1906H12C11.8067 24.1906 11.65 24.3473 11.65 24.5406V50.0281C11.65 50.121 11.687 50.2102 11.7528 50.2758L23.6573 62.1568C23.723 62.2223 23.8119 62.2591 23.9046 62.2591H52.4324C52.6257 62.2591 52.7824 62.1024 52.7824 61.9091V51.7187H63C63.1933 51.7187 63.35 51.562 63.35 51.3687V25.8811C63.35 25.7881 63.313 25.6989 63.2472 25.6333L51.3358 13.7522ZM17.2203 47.8801V29.7438H22.2176V41.7263C22.2176 41.8193 22.2546 41.9085 22.3205 41.9741L31.9921 51.6143C32.0577 51.6796 32.1466 51.7164 32.2392 51.7164H47.21V56.7059H26.0664L17.2203 47.8801ZM57.7797 28.0313L57.7776 46.1654H52.7824V34.1783C52.7824 34.0852 52.7453 33.996 52.6794 33.9303L43.0008 24.2926C42.9352 24.2272 42.8464 24.1906 42.7538 24.1906H27.7924V19.201H48.9267L57.7797 28.0313ZM47.21 46.1654H34.4009L27.7924 39.5737V29.7438H40.5991L47.21 36.3354V46.1654Z" fill="url(#paint2_linear_245_74)" fill-opacity="0.8"/>
<path d="M51.3358 13.7522C51.2701 13.6868 51.1813 13.65 51.0886 13.65H22.5676C22.3743 13.65 22.2176 13.8067 22.2176 14V24.1906H12C11.8067 24.1906 11.65 24.3473 11.65 24.5406V50.0281C11.65 50.121 11.687 50.2102 11.7528 50.2758L23.6573 62.1568C23.723 62.2223 23.8119 62.2591 23.9046 62.2591H52.4324C52.6257 62.2591 52.7824 62.1024 52.7824 61.9091V51.7187H63C63.1933 51.7187 63.35 51.562 63.35 51.3687V25.8811C63.35 25.7881 63.313 25.6989 63.2472 25.6333L51.3358 13.7522ZM17.2203 47.8801V29.7438H22.2176V41.7263C22.2176 41.8193 22.2546 41.9085 22.3205 41.9741L31.9921 51.6143C32.0577 51.6796 32.1466 51.7164 32.2392 51.7164H47.21V56.7059H26.0664L17.2203 47.8801ZM57.7797 28.0313L57.7776 46.1654H52.7824V34.1783C52.7824 34.0852 52.7453 33.996 52.6794 33.9303L43.0008 24.2926C42.9352 24.2272 42.8464 24.1906 42.7538 24.1906H27.7924V19.201H48.9267L57.7797 28.0313ZM47.21 46.1654H34.4009L27.7924 39.5737V29.7438H40.5991L47.21 36.3354V46.1654Z" fill="url(#paint3_linear_245_74)" fill-opacity="0.8"/>
<path d="M51.3358 13.7522C51.2701 13.6868 51.1813 13.65 51.0886 13.65H22.5676C22.3743 13.65 22.2176 13.8067 22.2176 14V24.1906H12C11.8067 24.1906 11.65 24.3473 11.65 24.5406V50.0281C11.65 50.121 11.687 50.2102 11.7528 50.2758L23.6573 62.1568C23.723 62.2223 23.8119 62.2591 23.9046 62.2591H52.4324C52.6257 62.2591 52.7824 62.1024 52.7824 61.9091V51.7187H63C63.1933 51.7187 63.35 51.562 63.35 51.3687V25.8811C63.35 25.7881 63.313 25.6989 63.2472 25.6333L51.3358 13.7522ZM17.2203 47.8801V29.7438H22.2176V41.7263C22.2176 41.8193 22.2546 41.9085 22.3205 41.9741L31.9921 51.6143C32.0577 51.6796 32.1466 51.7164 32.2392 51.7164H47.21V56.7059H26.0664L17.2203 47.8801ZM57.7797 28.0313L57.7776 46.1654H52.7824V34.1783C52.7824 34.0852 52.7453 33.996 52.6794 33.9303L43.0008 24.2926C42.9352 24.2272 42.8464 24.1906 42.7538 24.1906H27.7924V19.201H48.9267L57.7797 28.0313ZM47.21 46.1654H34.4009L27.7924 39.5737V29.7438H40.5991L47.21 36.3354V46.1654Z" stroke="url(#paint4_linear_245_74)" stroke-width="0.7" stroke-linejoin="round"/>
<path d="M61.7287 14.0001H61.0529V10.8674H61.7197L63.0265 13.02L64.3377 10.8674H65V14.0001H64.3287V11.9683L63.0936 14.0001H62.9638L61.7287 11.9773V14.0001Z" fill="#FCFCFF"/>
<path d="M59.3164 14.0001H58.6406V11.4358H57.2712V10.8674H60.6858V11.4358H59.3164V14.0001Z" fill="#FCFCFF"/>
<defs>
<filter id="filter0_b_245_74" x="-23.5589" y="-23.8438" width="122.844" height="122.844" filterUnits="userSpaceOnUse" color-interpolation-filters="sRGB">
<feFlood flood-opacity="0" result="BackgroundImageFix"/>
<feGaussianBlur in="BackgroundImageFix" stdDeviation="12"/>
<feComposite in2="SourceAlpha" operator="in" result="effect1_backgroundBlur_245_74"/>
<feBlend mode="normal" in="SourceGraphic" in2="effect1_backgroundBlur_245_74" result="shape"/>
</filter>
<linearGradient id="paint0_linear_245_74" x1="13.0367" y1="9.64269" x2="59.5035" y2="67.1929" gradientUnits="userSpaceOnUse">
<stop stop-color="white" stop-opacity="0.25"/>
<stop offset="1" stop-color="white" stop-opacity="0.06"/>
</linearGradient>
<linearGradient id="paint1_linear_245_74" x1="50.3579" y1="17.7664" x2="39.2926" y2="41.2818" gradientUnits="userSpaceOnUse">
<stop stop-color="#FDFDFF"/>
<stop offset="1" stop-color="#FDFDFF" stop-opacity="0"/>
</linearGradient>
<linearGradient id="paint2_linear_245_74" x1="28.8518" y1="17.2172" x2="42.4462" y2="46.6046" gradientUnits="userSpaceOnUse">
<stop stop-color="white"/>
<stop offset="1" stop-color="white" stop-opacity="0"/>
</linearGradient>
<linearGradient id="paint3_linear_245_74" x1="30.5026" y1="57.8088" x2="79.3846" y2="67.2099" gradientUnits="userSpaceOnUse">
<stop stop-color="white"/>
<stop offset="1" stop-color="white" stop-opacity="0"/>
</linearGradient>
<linearGradient id="paint4_linear_245_74" x1="75.4752" y1="13.935" x2="60.115" y2="35.8281" gradientUnits="userSpaceOnUse">
<stop stop-color="white" stop-opacity="0.19"/>
<stop offset="1" stop-color="white" stop-opacity="0"/>
<stop offset="1" stop-color="white" stop-opacity="0"/>
</linearGradient>
</defs>
</svg>
