<svg width="64" height="64" viewBox="0 0 64 64" fill="none" xmlns="http://www.w3.org/2000/svg">
<path d="M29.1399 25.89C28.6299 22.03 28.7499 16.01 29.0499 11.62C29.1099 10.73 29.1999 9.82997 29.5799 9.02997C29.9599 8.22997 30.6899 7.53997 31.5699 7.43997C32.5499 7.33997 33.4899 7.99997 33.9999 8.83997C34.5099 9.67997 34.6699 10.69 34.7999 11.67C35.4099 16.16 35.6999 21.99 35.6799 27.11" fill="white"/>
<path d="M29.1399 25.89C28.6299 22.03 28.7499 16.01 29.0499 11.62C29.1099 10.73 29.1999 9.82997 29.5799 9.02997C29.9599 8.22997 30.6899 7.53997 31.5699 7.43997C32.5499 7.33997 33.4899 7.99997 33.9999 8.83997C34.5099 9.67997 34.6699 10.69 34.7999 11.67C35.4099 16.16 35.6999 21.99 35.6799 27.11" stroke="#12182F" stroke-width="1.5" stroke-linecap="round" stroke-linejoin="round"/>
<path d="M35.7797 27.4C35.6497 23.1 35.3897 17.52 35.6897 13.13C35.7497 12.24 35.8397 11.34 36.2197 10.54C36.5997 9.73998 37.3297 9.04998 38.2097 8.94998C39.1897 8.84998 40.1297 9.50998 40.6397 10.35C41.1497 11.19 41.3097 12.2 41.4397 13.18C42.0497 17.67 42.2197 22.23 41.9297 26.75" fill="white"/>
<path d="M35.7797 27.4C35.6497 23.1 35.3897 17.52 35.6897 13.13C35.7497 12.24 35.8397 11.34 36.2197 10.54C36.5997 9.73998 37.3297 9.04998 38.2097 8.94998C39.1897 8.84998 40.1297 9.50998 40.6397 10.35C41.1497 11.19 41.3097 12.2 41.4397 13.18C42.0497 17.67 42.2197 22.23 41.9297 26.75" stroke="#12182F" stroke-width="1.5" stroke-linecap="round" stroke-linejoin="round"/>
<path d="M42.4 30.8C41.92 27.19 42.03 21.55 42.32 17.44C42.38 16.61 42.46 15.76 42.81 15.01C43.16 14.26 43.85 13.61 44.67 13.52C45.59 13.42 46.47 14.04 46.94 14.83C47.41 15.62 47.57 16.56 47.69 17.48C48.26 21.69 48.42 25.95 48.15 30.19C47.88 34.43 48.11 38.01 47.18 42.01C46.25 46.01 44.87 50.05 41.86 52.84C38.85 55.64 36.07 57.27 28.79 56.27" fill="white"/>
<path d="M42.4 30.8C41.92 27.19 42.03 21.55 42.32 17.44C42.38 16.61 42.46 15.76 42.81 15.01C43.16 14.26 43.85 13.61 44.67 13.52C45.59 13.42 46.47 14.04 46.94 14.83C47.41 15.62 47.57 16.56 47.69 17.48C48.26 21.69 48.42 25.95 48.15 30.19C47.88 34.43 48.11 38.01 47.18 42.01C46.25 46.01 44.87 50.05 41.86 52.84C38.85 55.64 36.07 57.27 28.79 56.27" stroke="#12182F" stroke-width="1.5" stroke-linecap="round" stroke-linejoin="round"/>
<path d="M10.4099 33.1L6.97988 31.3C5.67988 30.87 5.67988 29.69 6.97988 29.26L10.4099 27.46C11.1299 27.22 11.9399 27.1 12.7599 27.1H50.8799C53.6699 27.1 55.9299 28.52 55.9299 30.28C55.9299 32.04 53.6699 33.46 50.8799 33.46H12.7599C11.9399 33.46 11.1399 33.34 10.4099 33.1Z" fill="#0019FF"/>
<path d="M24.1796 32.85C24.6596 33.95 25.5696 35.14 26.7596 34.97C27.8796 34.81 28.4496 33.56 28.7096 32.46C29.4496 29.43 30.0196 17.85 24.6996 18.18C20.0696 18.47 23.0896 30.37 24.1796 32.85Z" fill="white" stroke="#12182F" stroke-width="1.5" stroke-miterlimit="10"/>
<path d="M28.5004 46.57C29.3004 43.28 27.8504 39.56 25.0304 37.68C24.2404 37.15 23.3204 36.73 22.8104 35.93C22.4204 35.32 22.3204 34.58 22.2204 33.87C21.9104 31.5 22.3004 24.57 18.1604 25.16C17.3104 25.28 16.6104 25.96 16.2504 26.74C15.8904 27.52 15.7904 28.4 15.7304 29.26C15.3204 35.04 15.6504 41.99 18.3004 47.28C20.3804 51.43 24.1604 55.23 28.8004 56.27" fill="white"/>
<path d="M28.5004 46.57C29.3004 43.28 27.8504 39.56 25.0304 37.68C24.2404 37.15 23.3204 36.73 22.8104 35.93C22.4204 35.32 22.3204 34.58 22.2204 33.87C21.9104 31.5 22.3004 24.57 18.1604 25.16C17.3104 25.28 16.6104 25.96 16.2504 26.74C15.8904 27.52 15.7904 28.4 15.7304 29.26C15.3204 35.04 15.6504 41.99 18.3004 47.28C20.3804 51.43 24.1604 55.23 28.8004 56.27" stroke="#12182F" stroke-width="1.5" stroke-linecap="round" stroke-linejoin="round"/>
<path d="M36.5702 47.11C36.5702 47.11 32.0602 43.43 30.6102 41.84C29.2902 40.38 29.2202 38.16 30.6102 36.71C32.0002 35.32 34.2902 35.32 35.7402 36.71L36.5702 37.54L37.4002 36.71C38.7902 35.32 41.0802 35.32 42.5302 36.71C43.9202 38.1 43.8502 40.32 42.5302 41.84C41.0702 43.44 36.5702 47.11 36.5702 47.11Z" fill="#0019FF"/>
</svg>
