<svg width="64" height="64" viewBox="0 0 64 64" fill="none" xmlns="http://www.w3.org/2000/svg">
<path d="M28.5 35.96H51.32" stroke="#12182F" stroke-width="1.5" stroke-linecap="round" stroke-linejoin="round"/>
<path d="M19.8298 44.5601H16.7998C15.1429 44.5601 13.7998 45.9032 13.7998 47.5601V50.5901C13.7998 52.2469 15.1429 53.5901 16.7998 53.5901H19.8298C21.4867 53.5901 22.8298 52.2469 22.8298 50.5901V47.5601C22.8298 45.9032 21.4867 44.5601 19.8298 44.5601Z" stroke="#12182F" stroke-width="1.5" stroke-miterlimit="10"/>
<path d="M20.0139 30.3489H16.6161C14.7581 30.3489 13.252 31.8551 13.252 33.713V37.1108C13.252 38.9688 14.7581 40.4749 16.6161 40.4749H20.0139C21.8718 40.4749 23.378 38.9688 23.378 37.1108V33.713C23.378 31.8551 21.8718 30.3489 20.0139 30.3489Z" fill="#001AFF"/>
<path d="M28.5 49.08H51.32" stroke="#12182F" stroke-width="1.5" stroke-linecap="round" stroke-linejoin="round"/>
<path d="M36.0396 19.5C32.3696 16.33 29.6596 12.12 25.1296 11.88C22.5796 11.74 19.7296 13.4 19.0996 15.97C18.2596 19.4 21.2996 21.92 24.4396 22.29C27.7296 22.68 31.0196 19.69 33.1396 17.54C35.5196 15.12 38.0896 12.64 41.6596 12.41C44.1696 12.25 46.9196 13.57 47.7196 15.96C48.2696 17.62 47.7696 19.55 46.5496 20.8C44.4896 22.91 40.5096 23.41 38.2996 21.49" stroke="#12182F" stroke-width="1.5" stroke-linecap="round" stroke-linejoin="round"/>
</svg>
